<svg width="226" height="300" viewBox="0 0 226 300" fill="none" xmlns="http://www.w3.org/2000/svg">
<mask id="mask0_346_4040" style="mask-type:luminance" maskUnits="userSpaceOnUse" x="0" y="37" width="226" height="226">
<path d="M226 37.4919H0.980469V262.508H226V37.4919Z" fill="white"/>
</mask>
<g mask="url(#mask0_346_4040)">
<path d="M193.767 145.114L123.059 145.114L173.057 95.1152L165.486 87.5442L115.489 137.543L115.489 66.8342L104.782 66.8342L104.782 137.543L54.7844 87.5442L47.2135 95.1152L97.2112 145.114L26.5039 145.114L26.5039 155.821L97.2112 155.821L47.2135 205.819L54.7844 213.39L104.782 163.391L104.782 234.1L115.489 234.1L115.489 163.391L165.486 213.39L173.057 205.819L123.059 155.821L193.767 155.821L193.767 145.114Z" fill="#C8A0E4"/>
<path d="M193.767 145.114L123.059 145.114L173.057 95.1152L165.486 87.5442L115.489 137.543L115.489 66.8342L104.782 66.8342L104.782 137.543L54.7844 87.5442L47.2135 95.1152L97.2112 145.114L26.5039 145.114L26.5039 155.821L97.2112 155.821L47.2135 205.819L54.7844 213.39L104.782 163.391L104.782 234.1L115.489 234.1L115.489 163.391L165.486 213.39L173.057 205.819L123.059 155.821L193.767 155.821L193.767 145.114Z" stroke="white" stroke-width="1.3501" stroke-miterlimit="10"/>
</g>
</svg>
