<svg width="43" height="43" viewBox="0 0 43 43" fill="none" xmlns="http://www.w3.org/2000/svg">
<path d="M12.2637 31.6953H18.3955H24.5274" stroke="#3A3A3A" stroke-width="2.62793" stroke-linecap="round" stroke-linejoin="round"/>
<path d="M12.2637 24.6875H13.1396H14.0156" stroke="#3A3A3A" stroke-width="2.62793" stroke-linecap="round" stroke-linejoin="round"/>
<path d="M12.2637 17.6797H14.8916H17.5195" stroke="#3A3A3A" stroke-width="2.62793" stroke-linecap="round" stroke-linejoin="round"/>
<path d="M12.2637 3.66406H28.9072L36.791 11.5479V33.4473" stroke="#3A3A3A" stroke-width="2.62793" stroke-linecap="round" stroke-linejoin="round"/>
<path d="M5.25586 36.0752V11.5479C5.25586 10.0965 6.43242 8.91992 7.88379 8.91992H24.968C25.2467 8.91992 25.5141 9.03066 25.7112 9.22781L31.2274 14.7439C31.4245 14.941 31.5352 15.2084 31.5352 15.4872V36.0752C31.5352 37.5265 30.3586 38.7032 28.9073 38.7032H7.88379C6.43242 38.7032 5.25586 37.5265 5.25586 36.0752Z" stroke="#3A3A3A" stroke-width="2.62793" stroke-linecap="round" stroke-linejoin="round"/>
<path d="M24.5273 8.91992V14.8766C24.5273 15.4571 24.9979 15.9277 25.5785 15.9277H31.5352" stroke="#3A3A3A" stroke-width="2.62793" stroke-linecap="round" stroke-linejoin="round"/>
</svg>
