<svg width="112" height="18" viewBox="0 0 112 18" fill="none" xmlns="http://www.w3.org/2000/svg">
<g opacity="0.9" filter="url(#filter0_d_254_1385)">
<path d="M5.13146 8.03975H8.78803V13.3033C8.78803 14.6469 8.45562 15.6822 7.79078 16.4093C7.14178 17.1206 6.17619 17.4763 4.89402 17.4763C3.61184 17.4763 2.63834 17.1206 1.9735 16.4093C1.3245 15.6822 1 14.6469 1 13.3033V4.67294C1 3.32938 1.3245 2.30195 1.9735 1.59065C2.63834 0.863551 3.61184 0.5 4.89402 0.5C6.17619 0.5 7.14178 0.863551 7.79078 1.59065C8.45562 2.30195 8.78803 3.32938 8.78803 4.67294V6.28522H6.31866V4.50697C6.31866 3.90632 6.19202 3.48745 5.93875 3.25035C5.70131 2.99744 5.37681 2.87099 4.96525 2.87099C4.55368 2.87099 4.22127 2.99744 3.968 3.25035C3.73056 3.48745 3.61184 3.90632 3.61184 4.50697V13.4693C3.61184 14.07 3.73056 14.4888 3.968 14.7259C4.22127 14.963 4.55368 15.0816 4.96525 15.0816C5.37681 15.0816 5.70131 14.963 5.93875 14.7259C6.19202 14.4888 6.31866 14.07 6.31866 13.4693V10.4107H5.13146V8.03975Z" fill="white"/>
<path d="M14.9769 17.2866C14.9452 17.176 14.9135 17.0732 14.8819 16.9784C14.8502 16.8835 14.8186 16.765 14.7869 16.6227C14.7711 16.4805 14.7553 16.2987 14.7394 16.0774C14.7394 15.8561 14.7394 15.5795 14.7394 15.2476V12.6395C14.7394 11.8649 14.6049 11.3196 14.3358 11.0035C14.0667 10.6874 13.6314 10.5293 13.0299 10.5293H12.1276V17.2866H9.51575V0.689678H13.4573C14.8186 0.689678 15.8 1.00581 16.4015 1.63807C17.0189 2.27034 17.3275 3.22664 17.3275 4.50697V5.81102C17.3275 7.51813 16.7577 8.6404 15.618 9.17782C16.2828 9.44654 16.7339 9.88912 16.9714 10.5056C17.2246 11.1062 17.3513 11.8412 17.3513 12.7106V15.2713C17.3513 15.6822 17.3671 16.0458 17.3988 16.3619C17.4304 16.6622 17.5096 16.9705 17.6362 17.2866H14.9769ZM12.1276 3.06067V8.1583H13.1486C13.6393 8.1583 14.0192 8.03185 14.2883 7.77894C14.5732 7.52603 14.7157 7.06764 14.7157 6.40376V4.76778C14.7157 4.16713 14.6049 3.73245 14.3833 3.46374C14.1775 3.19503 13.8451 3.06067 13.386 3.06067H12.1276Z" fill="white"/>
<path d="M26.5721 17.2866H23.9365L23.4854 14.2755H20.2799L19.8288 17.2866H17.4307L20.09 0.689678H23.9128L26.5721 17.2866ZM20.6124 12.023H23.1292L21.8708 3.62971L20.6124 12.023Z" fill="white"/>
<path d="M29.1656 5.26569V17.2866H26.8149V0.689678H30.0916L32.7747 10.6241V0.689678H35.1016V17.2866H32.4185L29.1656 5.26569Z" fill="white"/>
<path d="M36.0218 0.689678H40.1533C41.4671 0.689678 42.4406 1.03742 43.0738 1.73291C43.7228 2.4284 44.0473 3.44793 44.0473 4.79149V13.1848C44.0473 14.5284 43.7228 15.5479 43.0738 16.2434C42.4406 16.9389 41.4671 17.2866 40.1533 17.2866H36.0218V0.689678ZM38.6337 3.06067V14.9156H40.1058C40.5174 14.9156 40.8419 14.7971 41.0793 14.56C41.3168 14.3229 41.4355 13.904 41.4355 13.3033V4.67294C41.4355 4.07229 41.3168 3.65342 41.0793 3.41632C40.8419 3.17922 40.5174 3.06067 40.1058 3.06067H38.6337Z" fill="white"/>
<path d="M51.443 14.228L53.4375 0.689678H55.8357L53.2713 17.2866H49.3773L46.8129 0.689678H49.4485L51.443 14.228Z" fill="white"/>
<path d="M56.105 0.689678H58.7168V17.2866H56.105V0.689678Z" fill="white"/>
<path d="M59.3444 4.67294C59.3444 3.32938 59.661 2.30195 60.2941 1.59065C60.9431 0.863551 61.9087 0.5 63.1909 0.5C64.4731 0.5 65.4308 0.863551 66.0639 1.59065C66.7129 2.30195 67.0374 3.32938 67.0374 4.67294V5.31311H64.5681V4.50697C64.5681 3.90632 64.4493 3.48745 64.2119 3.25035C63.9903 2.99744 63.6737 2.87099 63.2621 2.87099C62.8506 2.87099 62.5261 2.99744 62.2886 3.25035C62.067 3.48745 61.9562 3.90632 61.9562 4.50697C61.9562 5.07601 62.0829 5.58182 62.3361 6.02441C62.5894 6.45118 62.906 6.86216 63.2859 7.25732C63.6658 7.63668 64.0694 8.02394 64.4968 8.41911C64.94 8.79846 65.3516 9.21734 65.7315 9.67573C66.1114 10.1341 66.428 10.6557 66.6813 11.2406C66.9345 11.8254 67.0612 12.513 67.0612 13.3033C67.0612 14.6469 66.7288 15.6822 66.0639 16.4093C65.4149 17.1206 64.4493 17.4763 63.1672 17.4763C61.885 17.4763 60.9115 17.1206 60.2467 16.4093C59.5976 15.6822 59.2731 14.6469 59.2731 13.3033V12.1653H61.7425V13.4693C61.7425 14.07 61.8612 14.4888 62.0987 14.7259C62.352 14.963 62.6844 15.0816 63.0959 15.0816C63.5075 15.0816 63.832 14.963 64.0694 14.7259C64.3227 14.4888 64.4493 14.07 64.4493 13.4693C64.4493 12.9003 64.3227 12.4024 64.0694 11.9756C63.8162 11.533 63.4996 11.122 63.1197 10.7427C62.7398 10.3475 62.3282 9.96025 61.885 9.58089C61.4576 9.18573 61.0539 8.75895 60.674 8.30056C60.2941 7.84217 59.9776 7.32055 59.7243 6.7357C59.471 6.15086 59.3444 5.46327 59.3444 4.67294Z" fill="white"/>
<path d="M76.0607 17.2866H73.4251L72.974 14.2755H69.7685L69.3174 17.2866H66.9193L69.5786 0.689678H73.4014L76.0607 17.2866ZM70.101 12.023H72.6178L71.3594 3.62971L70.101 12.023Z" fill="white"/>
<path d="M86.6387 11.0983V13.3033C86.6387 14.6469 86.3062 15.6822 85.6414 16.4093C84.9924 17.1206 84.0268 17.4763 82.7446 17.4763C81.4625 17.4763 80.489 17.1206 79.8241 16.4093C79.1751 15.6822 78.8506 14.6469 78.8506 13.3033V4.67294C78.8506 3.32938 79.1751 2.30195 79.8241 1.59065C80.489 0.863551 81.4625 0.5 82.7446 0.5C84.0268 0.5 84.9924 0.863551 85.6414 1.59065C86.3062 2.30195 86.6387 3.32938 86.6387 4.67294V6.28522H84.1693V4.50697C84.1693 3.90632 84.0426 3.48745 83.7894 3.25035C83.5519 2.99744 83.2274 2.87099 82.8159 2.87099C82.4043 2.87099 82.0719 2.99744 81.8186 3.25035C81.5812 3.48745 81.4625 3.90632 81.4625 4.50697V13.4693C81.4625 14.07 81.5812 14.4888 81.8186 14.7259C82.0719 14.963 82.4043 15.0816 82.8159 15.0816C83.2274 15.0816 83.5519 14.963 83.7894 14.7259C84.0426 14.4888 84.1693 14.07 84.1693 13.4693V11.0983H86.6387Z" fill="white"/>
<path d="M87.2736 0.689678H89.8855V14.9156H94.1831V17.2866H87.2736V0.689678Z" fill="white"/>
<path d="M96.9094 0.689678V13.493C96.9094 14.0937 97.0281 14.5126 97.2656 14.7497C97.5189 14.9867 97.8513 15.1053 98.2628 15.1053C98.6744 15.1053 98.9989 14.9867 99.2363 14.7497C99.4896 14.5126 99.6162 14.0937 99.6162 13.493V0.689678H102.086V13.3271C102.086 14.6706 101.753 15.7059 101.088 16.4331C100.439 17.1444 99.4738 17.5 98.1916 17.5C96.9094 17.5 95.9359 17.1444 95.2711 16.4331C94.6221 15.7059 94.2976 14.6706 94.2976 13.3271V0.689678H96.9094Z" fill="white"/>
<path d="M106.869 0.689678C108.23 0.689678 109.211 1.00581 109.813 1.63807C110.43 2.27034 110.739 3.22664 110.739 4.50697V5.09972C110.739 5.95328 110.604 6.65667 110.335 7.2099C110.066 7.76313 109.639 8.1741 109.053 8.44282C109.765 8.71153 110.264 9.15411 110.549 9.77057C110.85 10.3712 111 11.1141 111 11.9993V13.3508C111 14.6311 110.668 15.6111 110.003 16.2908C109.338 16.9547 108.349 17.2866 107.035 17.2866H102.927V0.689678H106.869ZM105.539 9.81799V14.9156H107.035C107.478 14.9156 107.81 14.7971 108.032 14.56C108.269 14.3229 108.388 13.8961 108.388 13.2796V11.8333C108.388 11.0588 108.254 10.5293 107.985 10.2448C107.731 9.96025 107.304 9.81799 106.702 9.81799H105.539ZM105.539 3.06067V7.447H106.56C107.051 7.447 107.43 7.32055 107.7 7.06764C107.985 6.81474 108.127 6.35635 108.127 5.69247V4.76778C108.127 4.16713 108.016 3.73245 107.795 3.46374C107.589 3.19503 107.256 3.06067 106.797 3.06067H105.539Z" fill="white"/>
</g>
<defs>
<filter id="filter0_d_254_1385" x="0.718912" y="0.218912" width="110.562" height="17.5622" filterUnits="userSpaceOnUse" color-interpolation-filters="sRGB">
<feFlood flood-opacity="0" result="BackgroundImageFix"/>
<feColorMatrix in="SourceAlpha" type="matrix" values="0 0 0 0 0 0 0 0 0 0 0 0 0 0 0 0 0 0 127 0" result="hardAlpha"/>
<feOffset/>
<feGaussianBlur stdDeviation="0.140544"/>
<feComposite in2="hardAlpha" operator="out"/>
<feColorMatrix type="matrix" values="0 0 0 0 0 0 0 0 0 0 0 0 0 0 0 0 0 0 0.15 0"/>
<feBlend mode="normal" in2="BackgroundImageFix" result="effect1_dropShadow_254_1385"/>
<feBlend mode="normal" in="SourceGraphic" in2="effect1_dropShadow_254_1385" result="shape"/>
</filter>
</defs>
</svg>
