<svg width="182" height="30" viewBox="0 0 182 30" fill="none" xmlns="http://www.w3.org/2000/svg">
<g opacity="0.9" filter="url(#filter0_d_383_2190)">
<path d="M7.76056 13.4184H13.7441V22.0879C13.7441 24.3008 13.2001 26.006 12.1122 27.2036C11.0502 28.3752 9.47013 28.9609 7.37203 28.9609C5.27392 28.9609 3.68091 28.3752 2.59301 27.2036C1.531 26.006 1 24.3008 1 22.0879V7.87308C1 5.66016 1.531 3.96792 2.59301 2.79637C3.68091 1.59879 5.27392 1 7.37203 1C9.47013 1 11.0502 1.59879 12.1122 2.79637C13.2001 3.96792 13.7441 5.66016 13.7441 7.87308V10.5286H9.70325V7.59972C9.70325 6.61041 9.49603 5.9205 9.08159 5.52999C8.69305 5.11343 8.16205 4.90516 7.48859 4.90516C6.81512 4.90516 6.27117 5.11343 5.85673 5.52999C5.46819 5.9205 5.27392 6.61041 5.27392 7.59972V22.3612C5.27392 23.3505 5.46819 24.0404 5.85673 24.431C6.27117 24.8215 6.81512 25.0167 7.48859 25.0167C8.16205 25.0167 8.69305 24.8215 9.08159 24.431C9.49603 24.0404 9.70325 23.3505 9.70325 22.3612V17.3236H7.76056V13.4184Z" fill="#3A3A3A"/>
<path d="M23.8712 28.6485C23.8194 28.4663 23.7676 28.2971 23.7158 28.1409C23.664 27.9847 23.6122 27.7894 23.5604 27.5551C23.5345 27.3208 23.5086 27.0214 23.4827 26.6569C23.4827 26.2924 23.4827 25.8368 23.4827 25.2901V20.9944C23.4827 19.7187 23.2625 18.8205 22.8222 18.2999C22.3818 17.7792 21.6695 17.5188 20.6852 17.5188H19.2088V28.6485H14.9349V1.31241H21.3846C23.6122 1.31241 25.2182 1.8331 26.2025 2.87448C27.2127 3.91585 27.7178 5.49093 27.7178 7.59972V9.74756C27.7178 12.5593 26.7853 14.4077 24.9203 15.2929C26.0082 15.7355 26.7464 16.4644 27.135 17.4798C27.5494 18.4691 27.7566 19.6797 27.7566 21.1116V25.3291C27.7566 26.006 27.7825 26.6048 27.8343 27.1255C27.8861 27.6202 28.0156 28.1278 28.2229 28.6485H23.8712ZM19.2088 5.21757V13.6137H20.8795C21.6825 13.6137 22.3041 13.4054 22.7445 12.9888C23.2107 12.5723 23.4438 11.8173 23.4438 10.7238V8.02929C23.4438 7.03998 23.2625 6.32403 22.8999 5.88145C22.5632 5.43886 22.0192 5.21757 21.268 5.21757H19.2088Z" fill="#3A3A3A"/>
<path d="M42.8453 28.6485H38.5325L37.7943 23.689H32.549L31.8108 28.6485H27.8865L32.2382 1.31241H38.4936L42.8453 28.6485ZM33.0929 19.9791H37.2114L35.1522 6.15481L33.0929 19.9791Z" fill="#3A3A3A"/>
<path d="M47.0891 8.84937V28.6485H43.2426V1.31241H48.6044L52.9949 17.675V1.31241H56.8026V28.6485H52.4121L47.0891 8.84937Z" fill="#3A3A3A"/>
<path d="M58.3085 1.31241H65.069C67.2189 1.31241 68.8119 1.88517 69.848 3.03068C70.91 4.1762 71.4411 5.85541 71.4411 8.06834V21.8926C71.4411 24.1055 70.91 25.7847 69.848 26.9303C68.8119 28.0758 67.2189 28.6485 65.069 28.6485H58.3085V1.31241ZM62.5824 5.21757V24.7434H64.9913C65.6648 24.7434 66.1958 24.5481 66.5843 24.1576C66.9729 23.7671 67.1671 23.0772 67.1671 22.0879V7.87308C67.1671 6.88377 66.9729 6.19386 66.5843 5.80335C66.1958 5.41283 65.6648 5.21757 64.9913 5.21757H62.5824Z" fill="#3A3A3A"/>
<path d="M83.5431 23.6109L86.8068 1.31241H90.7311L86.5349 28.6485H80.1628L75.9666 1.31241H80.2794L83.5431 23.6109Z" fill="#3A3A3A"/>
<path d="M91.1718 1.31241H95.4457V28.6485H91.1718V1.31241Z" fill="#3A3A3A"/>
<path d="M96.4726 7.87308C96.4726 5.66016 96.9907 3.96792 98.0268 2.79637C99.0888 1.59879 100.669 1 102.767 1C104.865 1 106.432 1.59879 107.468 2.79637C108.53 3.96792 109.061 5.66016 109.061 7.87308V8.92748H105.02V7.59972C105.02 6.61041 104.826 5.9205 104.438 5.52999C104.075 5.11343 103.557 4.90516 102.883 4.90516C102.21 4.90516 101.679 5.11343 101.29 5.52999C100.928 5.9205 100.747 6.61041 100.747 7.59972C100.747 8.53696 100.954 9.37006 101.368 10.099C101.783 10.802 102.301 11.4788 102.922 12.1297C103.544 12.7545 104.205 13.3924 104.904 14.0432C105.629 14.6681 106.303 15.358 106.924 16.113C107.546 16.868 108.064 17.7271 108.478 18.6904C108.893 19.6536 109.1 20.7861 109.1 22.0879C109.1 24.3008 108.556 26.006 107.468 27.2036C106.406 28.3752 104.826 28.9609 102.728 28.9609C100.63 28.9609 99.037 28.3752 97.9491 27.2036C96.8871 26.006 96.3561 24.3008 96.3561 22.0879V20.2134H100.397V22.3612C100.397 23.3505 100.591 24.0404 100.98 24.431C101.394 24.8215 101.938 25.0167 102.612 25.0167C103.285 25.0167 103.816 24.8215 104.205 24.431C104.619 24.0404 104.826 23.3505 104.826 22.3612C104.826 21.424 104.619 20.6039 104.205 19.901C103.79 19.172 103.272 18.4951 102.65 17.8703C102.029 17.2194 101.355 16.5816 100.63 15.9568C99.9306 15.3059 99.2701 14.603 98.6484 13.848C98.0268 13.093 97.5087 12.2338 97.0943 11.2706C96.6798 10.3073 96.4726 9.1748 96.4726 7.87308Z" fill="#3A3A3A"/>
<path d="M123.827 28.6485H119.514L118.776 23.689H113.53L112.792 28.6485H108.868L113.22 1.31241H119.475L123.827 28.6485ZM114.074 19.9791H118.193L116.134 6.15481L114.074 19.9791Z" fill="#3A3A3A"/>
<path d="M141.136 18.4561V22.0879C141.136 24.3008 140.592 26.006 139.504 27.2036C138.442 28.3752 136.862 28.9609 134.764 28.9609C132.666 28.9609 131.073 28.3752 129.985 27.2036C128.923 26.006 128.392 24.3008 128.392 22.0879V7.87308C128.392 5.66016 128.923 3.96792 129.985 2.79637C131.073 1.59879 132.666 1 134.764 1C136.862 1 138.442 1.59879 139.504 2.79637C140.592 3.96792 141.136 5.66016 141.136 7.87308V10.5286H137.095V7.59972C137.095 6.61041 136.888 5.9205 136.474 5.52999C136.085 5.11343 135.554 4.90516 134.881 4.90516C134.207 4.90516 133.663 5.11343 133.249 5.52999C132.86 5.9205 132.666 6.61041 132.666 7.59972V22.3612C132.666 23.3505 132.86 24.0404 133.249 24.431C133.663 24.8215 134.207 25.0167 134.881 25.0167C135.554 25.0167 136.085 24.8215 136.474 24.431C136.888 24.0404 137.095 23.3505 137.095 22.3612V18.4561H141.136Z" fill="#3A3A3A"/>
<path d="M142.175 1.31241H146.449V24.7434H153.481V28.6485H142.175V1.31241Z" fill="#3A3A3A"/>
<path d="M157.943 1.31241V22.4003C157.943 23.3896 158.137 24.0795 158.525 24.47C158.94 24.8605 159.484 25.0558 160.157 25.0558C160.831 25.0558 161.362 24.8605 161.75 24.47C162.165 24.0795 162.372 23.3896 162.372 22.4003V1.31241H166.413V22.1269C166.413 24.3398 165.869 26.0451 164.781 27.2427C163.719 28.4142 162.139 29 160.041 29C157.943 29 156.35 28.4142 155.262 27.2427C154.2 26.0451 153.669 24.3398 153.669 22.1269V1.31241H157.943Z" fill="#3A3A3A"/>
<path d="M174.239 1.31241C176.467 1.31241 178.073 1.8331 179.057 2.87448C180.068 3.91585 180.573 5.49093 180.573 7.59972V8.57601C180.573 9.98187 180.352 11.1404 179.912 12.0516C179.472 12.9628 178.772 13.6397 177.814 14.0823C178.98 14.5249 179.796 15.2538 180.262 16.2692C180.754 17.2585 181 18.4821 181 19.94V22.166C181 24.2748 180.456 25.8889 179.368 27.0084C178.28 28.1018 176.661 28.6485 174.511 28.6485H167.79V1.31241H174.239ZM172.064 16.3473V24.7434H174.511C175.237 24.7434 175.781 24.5481 176.143 24.1576C176.532 23.7671 176.726 23.0642 176.726 22.0488V19.6667C176.726 18.391 176.506 17.5188 176.066 17.0502C175.651 16.5816 174.952 16.3473 173.967 16.3473H172.064ZM172.064 5.21757V12.4421H173.734C174.537 12.4421 175.159 12.2338 175.599 11.8173C176.066 11.4007 176.299 10.6457 176.299 9.5523V8.02929C176.299 7.03998 176.117 6.32403 175.755 5.88145C175.418 5.43886 174.874 5.21757 174.123 5.21757H172.064Z" fill="#3A3A3A"/>
</g>
<defs>
<filter id="filter0_d_383_2190" x="0.718912" y="0.718912" width="180.562" height="28.5622" filterUnits="userSpaceOnUse" color-interpolation-filters="sRGB">
<feFlood flood-opacity="0" result="BackgroundImageFix"/>
<feColorMatrix in="SourceAlpha" type="matrix" values="0 0 0 0 0 0 0 0 0 0 0 0 0 0 0 0 0 0 127 0" result="hardAlpha"/>
<feOffset/>
<feGaussianBlur stdDeviation="0.140544"/>
<feComposite in2="hardAlpha" operator="out"/>
<feColorMatrix type="matrix" values="0 0 0 0 0 0 0 0 0 0 0 0 0 0 0 0 0 0 0.15 0"/>
<feBlend mode="normal" in2="BackgroundImageFix" result="effect1_dropShadow_383_2190"/>
<feBlend mode="normal" in="SourceGraphic" in2="effect1_dropShadow_383_2190" result="shape"/>
</filter>
</defs>
</svg>
