<svg width="20" height="21" viewBox="0 0 20 21" fill="none" xmlns="http://www.w3.org/2000/svg">
<path d="M11.9415 18.393V20.1605C10.7979 20.5963 9.7074 20.7901 8.6968 20.7901C7.633 20.7901 6.6223 20.5721 5.6117 20.1605V18.8046L4.4415 17.5697C3.75 16.4075 3.2713 14.9063 3.0053 13.0661L3.1649 11.5891L0.5851 7.52129C0.1862 6.91599 0 6.43169 0 6.06849C0 5.75369 0.106399 5.46319 0.345699 5.24529C0.585099 5.02729 0.8777 4.90629 1.2234 4.90629C1.7287 4.90629 2.234 5.29369 2.7394 6.04429L5.0798 9.55519L3.6436 4.54309C3.4574 3.91349 3.3777 3.50189 3.3777 3.25979C3.3777 2.79969 3.484 2.46079 3.6968 2.24279C3.9096 2.02489 4.2553 1.90389 4.6809 1.90389C5.4255 1.90389 5.984 2.43649 6.3032 3.47769L7.9255 8.63509V2.70289C7.9255 2.07329 8.0585 1.58907 8.2979 1.2743C8.5372 0.95953 8.9362 0.790039 9.4415 0.790039C10.4521 0.790039 10.9309 1.51643 10.9309 2.94499L10.7713 8.80459L12.4468 4.22829C12.9787 2.92079 13.5904 2.24279 14.3085 2.24279C14.734 2.24279 15.0266 2.33969 15.2394 2.53339C15.4521 2.72709 15.5585 3.01769 15.5585 3.38089C15.5585 3.76829 15.4787 4.22829 15.3457 4.76099L13.6702 10.669C13.75 10.9595 13.8298 11.3712 13.9096 11.9523C14.2021 11.807 14.6011 11.6375 15.1064 11.4922C15.4787 10.9353 15.8777 10.4995 16.3298 10.2332C16.7819 9.94259 17.2872 9.82149 17.8191 9.82149C18.3511 9.82149 18.9628 10.1121 19.734 10.6932L20 10.8869L17.0745 13.4051L14.6011 16.4317C13.5904 17.2549 12.7128 17.9087 11.9415 18.393ZM11.2766 18.1024C12.5 17.2549 13.484 16.4801 14.2287 15.8022L16.4894 13.0419L18.9894 10.9111C18.5638 10.5721 18.1383 10.4269 17.766 10.4269C17.3404 10.4269 16.9415 10.5479 16.5691 10.8143C16.1968 11.0806 15.8511 11.468 15.5585 11.9765C13.9628 12.4365 12.633 13.2598 11.5691 14.4462L11.0638 14.083C11.5957 13.3566 12.3404 12.7513 13.2713 12.2913C13.1915 11.7101 13.0851 11.1775 12.9255 10.6932L14.6011 4.90629C14.7872 4.32519 14.867 3.88929 14.867 3.62299C14.867 3.38089 14.8138 3.18709 14.7074 3.06609C14.6011 2.94499 14.4681 2.89659 14.2553 2.89659C13.883 2.89659 13.5372 3.30819 13.2181 4.15569L11.25 9.43409H10.0798L10.2394 3.40509L10.266 3.01769C10.266 1.95229 9.9734 1.39537 9.4149 1.39537C9.1489 1.39537 8.9362 1.49222 8.7766 1.66171C8.6436 1.85539 8.5638 2.12179 8.5638 2.50919L8.5904 3.28399V9.43409L7.5266 9.60359L5.8511 3.96199C5.5851 2.96919 5.1862 2.46079 4.7074 2.46079C4.4681 2.46079 4.3085 2.53339 4.1755 2.65449C4.0691 2.77549 3.9894 2.96919 3.9894 3.23559C3.9894 3.40509 4.0691 3.74399 4.2287 4.27669L6.0372 10.2574L5.0532 10.6932L2.1543 6.35909C1.7819 5.80219 1.4628 5.53579 1.1968 5.53579C1.0106 5.53579 0.877699 5.58419 0.797899 5.68109C0.718099 5.77789 0.6649 5.87479 0.6649 6.06849C0.6649 6.31059 0.8245 6.67379 1.1702 7.20649L3.8564 11.4196L3.6968 13.0903C3.9628 14.7852 4.4415 16.1896 5.0798 17.3518L6.3032 18.7077V19.7731C7.1011 20.0637 7.9255 20.1847 8.8032 20.1847C9.5213 20.1847 10.3457 20.0394 11.2766 19.7731V18.1024Z" fill="#3A3A3A"/>
</svg>
