<svg width="18" height="18" viewBox="0 0 18 18" fill="none" xmlns="http://www.w3.org/2000/svg">
<path d="M18 4.63629C18 7.13959 16.4288 9.67029 13.2864 12.2836C11.1087 14.0991 8.4074 15.7496 5.1822 17.2901C5.2925 16.6849 5.3476 16.0797 5.3476 15.5295C5.3476 14.0716 4.879 12.7512 3.9694 11.5684C3.1149 10.6056 2.2328 9.67029 1.3783 8.73499C0.4686 7.57969 0 6.31429 0 4.93889C0 3.59099 0.4686 2.49069 1.3783 1.61043C2.2879 0.73017 3.4181 0.290039 4.7688 0.290039C5.706 0.290039 6.5605 0.537609 7.3599 1.00525C8.2144 1.52791 8.7657 2.21559 9.0138 3.06839C9.9786 1.22532 11.3844 0.290039 13.2312 0.290039C14.4717 0.290039 15.5743 0.70266 16.5115 1.5004C17.5038 2.35319 18 3.39849 18 4.63629Z" fill="#3A3A3A"/>
</svg>
