<svg width="43" height="43" viewBox="0 0 43 43" fill="none" xmlns="http://www.w3.org/2000/svg">
<g clip-path="url(#clip0_372_2686)">
<path d="M14.8916 7.16797H10.5117C8.57657 7.16797 7.00781 8.73672 7.00781 10.6719V35.1993C7.00781 37.1345 8.57657 38.7032 10.5117 38.7032H21.0235" stroke="#3A3A3A" stroke-width="2.68806" stroke-linecap="round"/>
<path d="M27.1562 7.16797H31.5361C33.4713 7.16797 35.04 8.73672 35.04 10.6719V26.4395" stroke="#3A3A3A" stroke-width="2.68806" stroke-linecap="round"/>
<path d="M14.0156 11.3727V8.04395C14.0156 7.56017 14.4078 7.16798 14.8916 7.16798C15.3754 7.16798 15.775 6.77561 15.8578 6.29897C16.1174 4.80583 17.1236 1.91211 21.0234 1.91211C24.9233 1.91211 25.9294 4.80583 26.1891 6.29897C26.272 6.77561 26.6716 7.16798 27.1553 7.16798C27.639 7.16798 28.0313 7.56017 28.0313 8.04395V11.3727C28.0313 11.9532 27.5607 12.4238 26.9801 12.4238H15.0668C14.4863 12.4238 14.0156 11.9532 14.0156 11.3727Z" stroke="#3A3A3A" stroke-width="2.68806" stroke-linecap="round"/>
<path d="M27.1562 36.0752L30.6602 39.5791L39.4199 30.8193" stroke="#3A3A3A" stroke-width="2.68806" stroke-linecap="round" stroke-linejoin="round"/>
</g>
<defs>
<clipPath id="clip0_372_2686">
<rect width="42.0469" height="42.0469" fill="white" transform="translate(0 0.160156)"/>
</clipPath>
</defs>
</svg>
