<svg width="43" height="43" viewBox="0 0 43 43" fill="none" xmlns="http://www.w3.org/2000/svg">
<path d="M7.00782 20.3073L6.158 20.5198C4.59816 20.9098 3.50391 22.3112 3.50391 23.9191V27.2072C3.50391 28.8151 4.59816 30.2165 6.158 30.6065L9.20561 31.3684C9.86906 31.5343 10.5117 31.0326 10.5117 30.3486V20.7777C10.5117 20.0937 9.86906 19.592 9.20561 19.7579L7.00782 20.3073ZM7.00782 20.3073V19.4317C7.00782 11.691 13.2828 5.41602 21.0235 5.41602C28.7641 5.41602 35.0391 11.691 35.0391 19.4317V20.3073M35.0391 20.3073L35.889 20.5198C37.4487 20.9098 38.543 22.3112 38.543 23.9191V27.2072C38.543 28.8151 37.4487 30.2165 35.889 30.6065L35.0391 30.819M35.0391 20.3073L32.8413 19.7579C32.1778 19.592 31.5352 20.0937 31.5352 20.7777V30.3486C31.5352 31.0326 32.1778 31.5343 32.8413 31.3684L35.0391 30.819M35.0391 30.819V31.6953V32.5713C35.0391 34.5065 33.4704 36.0752 31.5352 36.0752H26.2793M26.2793 36.0752C26.2793 34.6239 25.1027 33.4473 23.6514 33.4473H18.3955C16.9442 33.4473 15.7676 34.6239 15.7676 36.0752C15.7676 37.5266 16.9442 38.7032 18.3955 38.7032H23.6514C25.1027 38.7032 26.2793 37.5266 26.2793 36.0752Z" stroke="#3A3A3A" stroke-width="2.625"/>
</svg>
