<svg width="43" height="43" viewBox="0 0 43 43" fill="none" xmlns="http://www.w3.org/2000/svg">
<path d="M18.4321 4.75645C19.8221 3.23027 22.2233 3.23027 23.6133 4.75645L25.4007 6.71904C26.103 7.49038 27.1127 7.90857 28.1549 7.85987L30.8065 7.73595C32.8684 7.63957 34.5665 9.33762 34.4702 11.3996L34.3461 14.0512C34.2974 15.0933 34.7156 16.103 35.487 16.8054L37.4496 18.5927C38.9759 19.9827 38.9759 22.384 37.4496 23.774L35.487 25.5613C34.7156 26.2637 34.2974 27.2733 34.3461 28.3156L34.4702 30.9671C34.5665 33.029 32.8684 34.7272 30.8065 34.6308L28.1549 34.5068C27.1127 34.4581 26.103 34.8763 25.4007 35.6477L23.6133 37.6102C22.2233 39.1365 19.8221 39.1365 18.4321 37.6102L16.6448 35.6477C15.9423 34.8763 14.9327 34.4581 13.8906 34.5068L11.239 34.6308C9.17698 34.7272 7.47893 33.029 7.5753 30.9671L7.69922 28.3156C7.74793 27.2733 7.32973 26.2637 6.5584 25.5613L4.59581 23.774C3.06963 22.384 3.06963 19.9827 4.59581 18.5927L6.5584 16.8054C7.32973 16.103 7.74793 15.0933 7.69922 14.0512L7.5753 11.3996C7.47893 9.33762 9.17698 7.63957 11.239 7.73595L13.8906 7.85987C14.9327 7.90857 15.9423 7.49038 16.6448 6.71904L18.4321 4.75645Z" stroke="#3A3A3A" stroke-width="2.62793"/>
<path d="M15.7676 21.1836L19.2715 24.6875L26.2793 17.6797" stroke="#3A3A3A" stroke-width="2.62793" stroke-linecap="round" stroke-linejoin="round"/>
</svg>
