<svg width="43" height="43" viewBox="0 0 43 43" fill="none" xmlns="http://www.w3.org/2000/svg">
<path d="M18.3965 8.04395V16.2211C18.3965 16.5836 18.2097 16.9204 17.9025 17.1125L4.87491 25.2546C4.56757 25.4468 4.38086 25.7837 4.38086 26.146V27.721C4.38086 28.405 5.02353 28.9068 5.68698 28.7408L17.0904 25.8901C17.7539 25.7242 18.3965 26.2259 18.3965 26.9099V32.0943C18.3965 32.3975 18.2656 32.6859 18.0375 32.8855L14.2528 36.197C13.4499 36.8997 14.0833 38.2133 15.133 38.0224L20.8365 36.9854C20.9607 36.9628 21.0882 36.9628 21.2124 36.9854L26.9159 38.0224C27.9655 38.2133 28.599 36.8997 27.7961 36.197L24.0113 32.8855C23.7832 32.6859 23.6524 32.3975 23.6524 32.0943V26.9099C23.6524 26.2259 24.295 25.7242 24.9585 25.8901L36.3619 28.7408C37.0254 28.9068 37.668 28.405 37.668 27.721V26.146C37.668 25.7837 37.4813 25.4468 37.174 25.2546L24.1464 17.1125C23.8391 16.9204 23.6524 16.5836 23.6524 16.2211V8.04395C23.6524 6.59258 22.4758 5.41602 21.0244 5.41602C19.5731 5.41602 18.3965 6.59258 18.3965 8.04395Z" stroke="#3A3A3A" stroke-width="2.62793" stroke-linecap="round" stroke-linejoin="round"/>
</svg>
