<svg width="20" height="21" viewBox="0 0 20 21" fill="none" xmlns="http://www.w3.org/2000/svg">
<path d="M12.1214 12.8942C13.2929 11.7226 13.2929 9.82325 12.1214 8.65163C10.9498 7.48006 9.05026 7.48006 7.87868 8.65163C6.70711 9.82325 6.70711 11.7226 7.87868 12.8942C9.05026 14.0658 10.9498 14.0658 12.1214 12.8942Z" stroke="#3A3A3A" stroke-width="1.24893" stroke-miterlimit="1.5" stroke-linecap="round" stroke-linejoin="round"/>
<path fill-rule="evenodd" clip-rule="evenodd" d="M7.5 8.27295C7.5 8.27295 5.31303 8.7818 3.93191 7.41069C2.58132 6.05253 1.18529 4.71957 2.57589 3.32395C3.89734 1.99781 5.26964 3.30965 6.64397 4.68621C7.99187 6.03619 7.5 8.27295 7.5 8.27295Z" stroke="#3A3A3A" stroke-width="1.24893" stroke-miterlimit="1.5" stroke-linecap="round" stroke-linejoin="round"/>
<path fill-rule="evenodd" clip-rule="evenodd" d="M12.5005 8.27295C12.5005 8.27295 11.9918 6.08598 13.3629 4.70486C14.7211 3.35426 16.054 1.95824 17.4496 3.34884C18.7758 4.67029 17.4639 6.04259 16.0874 7.41692C14.7374 8.76482 12.5005 8.27295 12.5005 8.27295Z" stroke="#3A3A3A" stroke-width="1.24893" stroke-miterlimit="1.5" stroke-linecap="round" stroke-linejoin="round"/>
<path fill-rule="evenodd" clip-rule="evenodd" d="M7.5 13.2727C7.5 13.2727 8.00885 15.4599 6.63774 16.841C5.27958 18.1915 3.94662 19.5875 2.551 18.197C1.22486 16.8755 2.5367 15.5032 3.91326 14.1289C5.26324 12.781 7.5 13.2727 7.5 13.2727Z" stroke="#3A3A3A" stroke-width="1.24893" stroke-miterlimit="1.5" stroke-linecap="round" stroke-linejoin="round"/>
<path fill-rule="evenodd" clip-rule="evenodd" d="M12.4995 13.2729C12.4995 13.2729 14.6868 12.7642 16.0679 14.1353C17.4184 15.4935 18.8144 16.8264 17.4239 18.222C16.1024 19.5482 14.7301 18.2363 13.3558 16.8597C12.0079 15.5097 12.4995 13.2729 12.4995 13.2729Z" stroke="#3A3A3A" stroke-width="1.24893" stroke-miterlimit="1.5" stroke-linecap="round" stroke-linejoin="round"/>
</svg>
